# xmcd
#
# Track frame offsets: 
#        182
#        14882
#        31042
#
# Disc length: 559 seconds
#
# Revision: 0
# Processed by: cddbd v1.5.1PL0 Copyright (c) Steve Scherf et al.
# Submitted via: ExactAudioCopy v0.95a5
#
DISCID=1c022d03
DTITLE=Los Lobos - Just Another Greeting From East L.A.: A Holiday Col
DTITLE=lection
DYEAR=1993
DGENRE=Christmas/Holiday
TTITLE0=When The Circus Comes (Album Version)
TTITLE1=This Time Of The Year
TTITLE2=The Christmas Song
EXTD=
EXTT0=
EXTT1=
EXTT2=
PLAYORDER=
